HIERARCHY
ROOT Hips
{
 OFFSET 0.000000 0.000000 0.000000
 CHANNELS 6 Xposition Yposition Zposition Yrotation Xrotation Zrotation
 JOINT Chest
 {
  OFFSET 0.000000 9.857222 0.000240
  CHANNELS 3 Yrotation Xrotation Zrotation
  JOINT Chest2
  {
   OFFSET 0.000000 10.876940 -0.000436
   CHANNELS 3 Yrotation Xrotation Zrotation
   JOINT Chest3
   {
    OFFSET 0.000000 9.827798 0.000000
    CHANNELS 3 Yrotation Xrotation Zrotation
    JOINT Chest4
    {
     OFFSET 0.000000 9.827798 0.000000
     CHANNELS 3 Yrotation Xrotation Zrotation
     JOINT Neck
     {
      OFFSET 0.000000 13.831992 0.000000
      CHANNELS 3 Yrotation Xrotation Zrotation
      JOINT Head
      {
       OFFSET 0.000000 9.147643 -0.001036
       CHANNELS 3 Yrotation Xrotation Zrotation
       End Site
       {
        OFFSET 0.000000 17.515799 -0.000541
       }
      }
     }
     JOINT RightCollar
     {
      OFFSET -3.001579 7.717577 0.000000
      CHANNELS 3 Yrotation Xrotation Zrotation
      JOINT RightShoulder
      {
       OFFSET -14.002642 0.000000 0.000000
       CHANNELS 3 Yrotation Xrotation Zrotation
       JOINT RightElbow
       {
        OFFSET -30.053852 0.000000 0.000000
        CHANNELS 3 Yrotation Xrotation Zrotation
        JOINT RightWrist
        {
         OFFSET -24.564923 0.000000 -0.000000
         CHANNELS 3 Yrotation Xrotation Zrotation
         End Site
         {
          OFFSET -18.334355 0.000000 0.000000
         }
        }
       }
      }
     }
     JOINT LeftCollar
     {
      OFFSET 3.001579 7.717577 0.000000
      CHANNELS 3 Yrotation Xrotation Zrotation
      JOINT LeftShoulder
      {
       OFFSET 14.002642 0.000000 0.000000
       CHANNELS 3 Yrotation Xrotation Zrotation
       JOINT LeftElbow
       {
        OFFSET 30.053852 0.000000 0.000000
        CHANNELS 3 Yrotation Xrotation Zrotation
        JOINT LeftWrist
        {
         OFFSET 24.564923 0.000000 -0.000000
         CHANNELS 3 Yrotation Xrotation Zrotation
         End Site
         {
          OFFSET 18.334355 0.000000 0.000000
         }
        }
       }
      }
     }
    }
   }
  }
 }
 JOINT RightHip
 {
  OFFSET -8.003235 -0.001175 -0.000120
  CHANNELS 3 Yrotation Xrotation Zrotation
  JOINT RightKnee
  {
   OFFSET 0.000000 -41.759727 0.000113
   CHANNELS 3 Yrotation Xrotation Zrotation
   JOINT RightAnkle
   {
    OFFSET 0.000000 -40.728748 0.000159
    CHANNELS 3 Yrotation Xrotation Zrotation
    JOINT RightToe
    {
     OFFSET 0.000000 -6.515296 14.732841
     CHANNELS 3 Yrotation Xrotation Zrotation
     End Site
     {
      OFFSET 0.000000 -1.502839 6.412115
     }
    }
   }
  }
 }
 JOINT LeftHip
 {
  OFFSET 8.003235 -0.001175 -0.000120
  CHANNELS 3 Yrotation Xrotation Zrotation
  JOINT LeftKnee
  {
   OFFSET 0.000000 -41.759727 0.000113
   CHANNELS 3 Yrotation Xrotation Zrotation
   JOINT LeftAnkle
   {
    OFFSET 0.000000 -40.728748 0.000159
    CHANNELS 3 Yrotation Xrotation Zrotation
    JOINT LeftToe
    {
     OFFSET 0.000000 -6.515296 14.732841
     CHANNELS 3 Yrotation Xrotation Zrotation
     End Site
     {
      OFFSET 0.000000 -1.502839 6.412115
     }
    }
   }
  }
 }
}
MOTION
Frames: 5
Frame Time: 0.016667
0.000000 88.822259 0.000000 0.000000 -5.826342 0.000000 0.000000 11.116423 0.000000 0.000000 -5.290081 0.000000 0.000000 0.000000 0.000000 0.000000 0.000000 0.000000 0.000000 12.665069 0.000000 0.000000 0.575450 0.000000 0.000000 0.000000 0.000000 0.000000 0.000000 0.000000 2.337306 0.000000 0.000000 -2.337306 0.000000 0.000000 0.000000 0.000000 0.000000 0.000000 0.000000 0.000000 -2.337306 0.000000 0.000000 2.337306 0.000000 0.000000 0.000000 8.578828 0.000000 0.000000 1.905768 0.000000 0.000000 -4.658254 0.000000 0.000000 0.000000 0.000000 0.000000 8.578828 0.000000 0.000000 1.905768 0.000000 0.000000 -4.658254 0.000000 0.000000 0.000000 0.000000
7.649488 90.070035 19.810821 -23.320726 -20.498076 -1.760596 0.379475 2.964944 0.968080 0.163172 1.297198 0.419227 0.163172 1.297198 0.419227 0.121484 0.973011 0.314061 -11.171853 24.377864 -0.410887 -19.936534 9.662124 1.968503 10.754879 26.160323 12.495927 30.720859 3.570564 68.162720 30.337184 -8.372450 4.721839 -4.718801 0.680103 -12.802146 -29.455415 25.102553 -24.617609 -17.827862 -3.122549 -63.167122 -32.486949 15.497341 -9.616977 1.686902 3.149954 12.044720 -9.303207 20.881559 -4.830360 -8.994593 7.969903 -1.623410 1.559783 -8.395476 2.694694 -0.106709 0.058466 -0.084309 -5.751319 17.197844 2.002990 8.620879 15.893322 0.390426 -2.854237 -10.553987 -1.379214 0.113350 0.066238 0.040551
7.636045 90.069619 19.836955 -23.300394 -20.643787 -1.767071 0.420302 3.026488 0.982954 0.182040 1.323232 0.425908 0.182040 1.323232 0.425908 0.135602 0.992552 0.319022 -11.191279 24.351949 -0.379459 -19.980496 9.621415 2.032455 10.817114 26.208658 12.550087 30.787421 3.518763 68.416152 30.630746 -8.140556 4.742856 -4.619944 0.680889 -12.805109 -29.378414 25.065303 -24.593536 -17.821453 -3.137353 -63.239174 -32.464968 15.349175 -9.105978 1.812232 3.230557 12.134891 -9.373860 21.049223 -4.912316 -8.927137 7.967779 -1.554350 1.582403 -8.399604 2.680650 -0.119610 0.053857 -0.090264 -5.677979 17.356290 2.007371 8.653175 15.895987 0.430866 -2.940998 -10.567762 -1.389096 0.123732 0.065223 0.045304
7.632966 90.067803 19.867461 -23.283459 -20.791699 -1.773513 0.452278 3.087080 0.999279 0.197701 1.349657 0.433639 0.197701 1.349657 0.433639 0.147311 1.012384 0.324777 -11.211592 24.342378 -0.366569 -20.020631 9.608018 2.061356 10.852569 26.231011 12.579814 30.975510 3.497065 68.684024 30.842612 -7.941766 4.748624 -4.541322 0.669819 -12.750602 -29.283436 25.007095 -24.551691 -17.853340 -3.144137 -63.366622 -32.486855 14.972214 -8.774663 1.880666 3.152371 12.209504 -9.511324 21.217668 -5.033271 -8.849914 7.950963 -1.485212 1.636354 -8.392788 2.678414 -0.134690 0.052602 -0.097373 -5.663321 17.518562 2.012047 8.644745 15.906699 0.414944 -2.953343 -10.587153 -1.383682 0.132480 0.065581 0.050137
7.630714 90.066726 19.892451 -23.272562 -20.950100 -1.785723 0.475324 3.144731 1.023886 0.209543 1.376134 0.442491 0.209543 1.376134 0.442491 0.156153 1.032253 0.331381 -11.226988 24.353824 -0.372531 -20.046172 9.629839 2.052651 10.882463 26.239883 12.595983 31.234250 3.483643 68.974580 30.960350 -7.693539 4.766560 -4.491188 0.575363 -12.848654 -29.178144 24.935992 -24.500162 -17.934049 -3.116413 -63.528456 -32.541380 14.170835 -8.487549 1.936105 3.201118 12.224951 -9.596530 21.391317 -5.123422 -8.837975 7.944906 -1.425362 1.688105 -8.385348 2.673196 -0.143497 0.050859 -0.102091 -5.703250 17.677396 2.003931 8.650592 15.942981 0.388100 -2.951674 -10.611505 -1.369571 0.142831 0.061203 0.054633
